<svg width="149" height="37" viewBox="0 0 149 37" fill="none" xmlns="http://www.w3.org/2000/svg">
<path d="M47.04 25.5C46.9067 25.5 46.7933 25.4533 46.7 25.36C46.6067 25.2667 46.56 25.1533 46.56 25.02V11.98C46.56 11.8333 46.6067 11.72 46.7 11.64C46.7933 11.5467 46.9067 11.5 47.04 11.5H48.92C49.0667 11.5 49.18 11.5467 49.26 11.64C49.3533 11.72 49.4 11.8333 49.4 11.98V23.1H55.74C55.8867 23.1 56.0067 23.1467 56.1 23.24C56.1933 23.3333 56.24 23.4467 56.24 23.58V25.02C56.24 25.1533 56.1933 25.2667 56.1 25.36C56.0067 25.4533 55.8867 25.5 55.74 25.5H47.04ZM60.9611 25.7C60.2811 25.7 59.6544 25.5667 59.0811 25.3C58.5211 25.02 58.0744 24.6467 57.7411 24.18C57.4211 23.7133 57.2611 23.2 57.2611 22.64C57.2611 21.7333 57.6278 21 58.3611 20.44C59.0944 19.88 60.1011 19.5 61.3811 19.3L64.1211 18.9V18.48C64.1211 17.9067 63.9744 17.4733 63.6811 17.18C63.3878 16.8867 62.9211 16.74 62.2811 16.74C61.8411 16.74 61.4878 16.82 61.2211 16.98C60.9544 17.14 60.7344 17.3067 60.5611 17.48C60.4011 17.64 60.2944 17.7467 60.2411 17.8C60.1878 17.96 60.0878 18.04 59.9411 18.04H58.3811C58.2611 18.04 58.1544 18 58.0611 17.92C57.9811 17.84 57.9411 17.7333 57.9411 17.6C57.9544 17.2667 58.1144 16.8933 58.4211 16.48C58.7411 16.0533 59.2278 15.6867 59.8811 15.38C60.5344 15.06 61.3411 14.9 62.3011 14.9C63.8744 14.9 65.0211 15.2533 65.7411 15.96C66.4611 16.6667 66.8211 17.5933 66.8211 18.74V25.02C66.8211 25.1533 66.7744 25.2667 66.6811 25.36C66.6011 25.4533 66.4878 25.5 66.3411 25.5H64.6811C64.5478 25.5 64.4344 25.4533 64.3411 25.36C64.2478 25.2667 64.2011 25.1533 64.2011 25.02V24.24C63.9078 24.6667 63.4944 25.02 62.9611 25.3C62.4278 25.5667 61.7611 25.7 60.9611 25.7ZM61.6411 23.78C62.3744 23.78 62.9744 23.54 63.4411 23.06C63.9078 22.58 64.1411 21.8867 64.1411 20.98V20.58L62.1411 20.9C60.6078 21.14 59.8411 21.6533 59.8411 22.44C59.8411 22.8667 60.0144 23.2 60.3611 23.44C60.7211 23.6667 61.1478 23.78 61.6411 23.78ZM73.3464 25.7C72.3331 25.7 71.4864 25.5467 70.8064 25.24C70.1264 24.9333 69.6197 24.58 69.2864 24.18C68.9664 23.7667 68.8064 23.4133 68.8064 23.12C68.8064 22.9867 68.8464 22.88 68.9264 22.8C69.0197 22.72 69.1264 22.68 69.2464 22.68H70.8864C70.9931 22.68 71.0864 22.7333 71.1664 22.84C71.2331 22.8933 71.3797 23.02 71.6064 23.22C71.8464 23.42 72.1131 23.58 72.4064 23.7C72.7131 23.8067 73.0464 23.86 73.4064 23.86C73.9397 23.86 74.3731 23.76 74.7064 23.56C75.0397 23.3467 75.2064 23.0467 75.2064 22.66C75.2064 22.3933 75.1264 22.18 74.9664 22.02C74.8197 21.8467 74.5464 21.6933 74.1464 21.56C73.7597 21.4133 73.1731 21.2533 72.3864 21.08C71.2531 20.84 70.4131 20.4733 69.8664 19.98C69.3331 19.4867 69.0664 18.8333 69.0664 18.02C69.0664 17.4867 69.2264 16.9867 69.5464 16.52C69.8664 16.04 70.3397 15.6533 70.9664 15.36C71.6064 15.0533 72.3664 14.9 73.2464 14.9C74.1531 14.9 74.9331 15.0467 75.5864 15.34C76.2397 15.62 76.7331 15.96 77.0664 16.36C77.4131 16.76 77.5864 17.1133 77.5864 17.42C77.5864 17.54 77.5397 17.6467 77.4464 17.74C77.3664 17.82 77.2664 17.86 77.1464 17.86H75.6464C75.4997 17.86 75.3864 17.8067 75.3064 17.7C75.2131 17.6333 75.0597 17.5133 74.8464 17.34C74.6464 17.1533 74.4197 17.0067 74.1664 16.9C73.9131 16.7933 73.6064 16.74 73.2464 16.74C72.7531 16.74 72.3731 16.8467 72.1064 17.06C71.8397 17.2733 71.7064 17.5533 71.7064 17.9C71.7064 18.14 71.7664 18.34 71.8864 18.5C72.0197 18.66 72.2797 18.8133 72.6664 18.96C73.0531 19.0933 73.6331 19.2333 74.4064 19.38C76.8064 19.8467 78.0064 20.8933 78.0064 22.52C78.0064 23.4667 77.5931 24.2333 76.7664 24.82C75.9531 25.4067 74.8131 25.7 73.3464 25.7ZM80.5505 25.5C80.4171 25.5 80.3038 25.4533 80.2105 25.36C80.1171 25.2667 80.0705 25.1533 80.0705 25.02V11.78C80.0705 11.6333 80.1171 11.52 80.2105 11.44C80.3038 11.3467 80.4171 11.3 80.5505 11.3H82.2305C82.3771 11.3 82.4905 11.3467 82.5705 11.44C82.6638 11.52 82.7105 11.6333 82.7105 11.78V25.02C82.7105 25.1533 82.6638 25.2667 82.5705 25.36C82.4905 25.4533 82.3771 25.5 82.2305 25.5H80.5505ZM89.863 25.7C88.3696 25.7 87.183 25.2733 86.303 24.42C85.4363 23.5667 84.9763 22.3533 84.923 20.78L84.903 20.28C84.903 18.6133 85.3363 17.3 86.203 16.34C87.083 15.38 88.2963 14.9 89.843 14.9C91.4296 14.9 92.6496 15.38 93.503 16.34C94.3696 17.3 94.803 18.58 94.803 20.18V20.6C94.803 20.7333 94.7563 20.8467 94.663 20.94C94.5696 21.0333 94.4496 21.08 94.303 21.08H87.663V21.24C87.6896 21.9867 87.8896 22.6067 88.263 23.1C88.6496 23.58 89.1763 23.82 89.843 23.82C90.603 23.82 91.223 23.5133 91.703 22.9C91.823 22.7533 91.9163 22.6667 91.983 22.64C92.0496 22.6 92.163 22.58 92.323 22.58H94.083C94.203 22.58 94.303 22.6133 94.383 22.68C94.4763 22.7467 94.523 22.84 94.523 22.96C94.523 23.28 94.3296 23.66 93.943 24.1C93.5696 24.5267 93.0296 24.9 92.323 25.22C91.6163 25.54 90.7963 25.7 89.863 25.7ZM92.043 19.38V19.34C92.043 18.5533 91.843 17.9267 91.443 17.46C91.0563 16.98 90.523 16.74 89.843 16.74C89.163 16.74 88.6296 16.98 88.243 17.46C87.8563 17.9267 87.663 18.5533 87.663 19.34V19.38H92.043ZM100.885 25.7C99.8721 25.7 99.0255 25.5467 98.3455 25.24C97.6655 24.9333 97.1588 24.58 96.8255 24.18C96.5055 23.7667 96.3455 23.4133 96.3455 23.12C96.3455 22.9867 96.3855 22.88 96.4655 22.8C96.5588 22.72 96.6655 22.68 96.7855 22.68H98.4255C98.5321 22.68 98.6255 22.7333 98.7055 22.84C98.7721 22.8933 98.9188 23.02 99.1455 23.22C99.3855 23.42 99.6521 23.58 99.9455 23.7C100.252 23.8067 100.585 23.86 100.945 23.86C101.479 23.86 101.912 23.76 102.245 23.56C102.579 23.3467 102.745 23.0467 102.745 22.66C102.745 22.3933 102.665 22.18 102.505 22.02C102.359 21.8467 102.085 21.6933 101.685 21.56C101.299 21.4133 100.712 21.2533 99.9255 21.08C98.7921 20.84 97.9521 20.4733 97.4055 19.98C96.8721 19.4867 96.6055 18.8333 96.6055 18.02C96.6055 17.4867 96.7655 16.9867 97.0855 16.52C97.4055 16.04 97.8788 15.6533 98.5055 15.36C99.1455 15.0533 99.9055 14.9 100.785 14.9C101.692 14.9 102.472 15.0467 103.125 15.34C103.779 15.62 104.272 15.96 104.605 16.36C104.952 16.76 105.125 17.1133 105.125 17.42C105.125 17.54 105.079 17.6467 104.985 17.74C104.905 17.82 104.805 17.86 104.685 17.86H103.185C103.039 17.86 102.925 17.8067 102.845 17.7C102.752 17.6333 102.599 17.5133 102.385 17.34C102.185 17.1533 101.959 17.0067 101.705 16.9C101.452 16.7933 101.145 16.74 100.785 16.74C100.292 16.74 99.9121 16.8467 99.6455 17.06C99.3788 17.2733 99.2455 17.5533 99.2455 17.9C99.2455 18.14 99.3055 18.34 99.4255 18.5C99.5588 18.66 99.8188 18.8133 100.205 18.96C100.592 19.0933 101.172 19.2333 101.945 19.38C104.345 19.8467 105.545 20.8933 105.545 22.52C105.545 23.4667 105.132 24.2333 104.305 24.82C103.492 25.4067 102.352 25.7 100.885 25.7ZM111.63 25.5C111.403 25.5 111.216 25.4467 111.07 25.34C110.936 25.22 110.843 25.0733 110.79 24.9L106.75 12.1L106.71 11.92C106.71 11.8133 106.75 11.72 106.83 11.64C106.923 11.5467 107.03 11.5 107.15 11.5H109.77C109.97 11.5 110.13 11.56 110.25 11.68C110.383 11.7867 110.47 11.9067 110.51 12.04L113.23 21.08L115.97 12.04C116.01 11.8933 116.09 11.7667 116.21 11.66C116.343 11.5533 116.51 11.5 116.71 11.5H119.33C119.45 11.5 119.55 11.5467 119.63 11.64C119.71 11.72 119.75 11.8133 119.75 11.92C119.75 11.9867 119.743 12.0467 119.73 12.1L115.67 24.9C115.63 25.0733 115.536 25.22 115.39 25.34C115.256 25.4467 115.076 25.5 114.85 25.5H111.63ZM122.075 25.5C121.942 25.5 121.822 25.4533 121.715 25.36C121.622 25.2533 121.575 25.1333 121.575 25V12.02C121.575 11.8733 121.622 11.7533 121.715 11.66C121.808 11.5533 121.928 11.5 122.075 11.5H127.735C129.468 11.5 130.828 11.8933 131.815 12.68C132.802 13.4667 133.295 14.62 133.295 16.14C133.295 17.66 132.802 18.8 131.815 19.56C130.828 20.3067 129.468 20.68 127.735 20.68H125.455V25C125.455 25.1333 125.408 25.2533 125.315 25.36C125.222 25.4533 125.102 25.5 124.955 25.5H122.075ZM127.635 17.82C128.182 17.82 128.608 17.68 128.915 17.4C129.235 17.1067 129.395 16.68 129.395 16.12C129.395 15.6 129.248 15.18 128.955 14.86C128.675 14.54 128.235 14.38 127.635 14.38H125.395V17.82H127.635ZM135.649 25.5C135.516 25.5 135.396 25.4533 135.289 25.36C135.196 25.2533 135.149 25.1333 135.149 25V12.02C135.149 11.8733 135.196 11.7533 135.289 11.66C135.382 11.5533 135.502 11.5 135.649 11.5H137.909C138.216 11.5 138.442 11.6267 138.589 11.88L143.309 19.34V12.02C143.309 11.8733 143.356 11.7533 143.449 11.66C143.542 11.5533 143.662 11.5 143.809 11.5H146.349C146.496 11.5 146.616 11.5533 146.709 11.66C146.802 11.7533 146.849 11.8733 146.849 12.02V24.98C146.849 25.1267 146.802 25.2533 146.709 25.36C146.616 25.4533 146.496 25.5 146.349 25.5H144.089C143.782 25.5 143.556 25.3733 143.409 25.12L138.709 17.96V25C138.709 25.1467 138.656 25.2667 138.549 25.36C138.456 25.4533 138.336 25.5 138.189 25.5H135.649Z" fill="#0B132A"/>
<path d="M31.1473 14.0315L31.1255 14.0098C31.1238 14.0085 31.1224 14.0069 31.1215 14.005L17.5006 0.383789L3.87983 14.0047C3.87826 14.0063 3.8758 14.0094 3.8758 14.0094L3.85333 14.0312C1.77053 16.1257 0.447586 18.8563 0.0948177 21.789C-0.25795 24.7217 0.379698 27.6882 1.90639 30.2169C3.43309 32.7457 5.76122 34.6915 8.52069 35.745C11.2802 36.7985 14.3126 36.8995 17.136 36.0315C17.3735 35.9589 17.6275 35.9589 17.8651 36.0315C20.6882 36.8991 23.7205 36.7982 26.4798 35.7445C29.2391 34.6908 31.567 32.7451 33.0936 30.2166C34.6202 27.688 35.2579 24.7217 34.9053 21.7892C34.5526 18.8566 33.2299 16.126 31.1473 14.0315ZM8.7232 23.0136C8.65689 23.0799 8.6043 23.1587 8.56844 23.2452C8.53257 23.3318 8.5141 23.4246 8.51412 23.5184C8.53835 25.9224 9.21776 28.2742 10.4792 30.3209C10.5079 30.3673 10.5211 30.4216 10.517 30.476C10.513 30.5303 10.4918 30.582 10.4566 30.6237C10.4213 30.6654 10.3738 30.6948 10.3209 30.7078C10.2679 30.7208 10.2122 30.7168 10.1616 30.6962C9.21332 30.2973 8.35182 29.7174 7.62531 28.9891C6.13646 27.5 5.29946 25.4808 5.2981 23.375C5.29675 21.2693 6.13117 19.249 7.61812 17.7581L17.5006 7.87652L27.3826 17.7581C28.8698 19.2488 29.7045 21.2691 29.703 23.375C29.7018 25.4808 28.8647 27.5 27.3757 28.9891C26.6492 29.7174 25.7877 30.2973 24.8396 30.6962C24.7889 30.7168 24.7332 30.7208 24.6802 30.7078C24.6273 30.6948 24.5798 30.6652 24.5445 30.6237C24.5093 30.582 24.488 30.5303 24.484 30.4758C24.4799 30.4215 24.4931 30.3671 24.5218 30.3207C25.7835 28.2742 26.4633 25.9224 26.4879 23.5184C26.4879 23.4246 26.4692 23.3318 26.4332 23.2451C26.3971 23.1584 26.3444 23.0797 26.2779 23.0134L21.6037 18.0555C21.5571 18.0167 21.4985 17.9954 21.4378 17.9954C21.3773 17.9954 21.3186 18.0167 21.2721 18.0555C21.2255 18.0942 21.1942 18.1482 21.1833 18.2078C21.1724 18.2675 21.1828 18.3288 21.2127 18.3816C23.0281 21.6668 21.467 26.3855 18.8637 28.9891L18.85 29.0029C18.4907 29.3583 18.0056 29.5576 17.5002 29.5574C16.9948 29.5572 16.5098 29.3576 16.1508 29.002L16.1382 28.9891C13.5339 26.3855 11.9736 21.6673 13.7893 18.3823C13.8192 18.3295 13.8296 18.2682 13.8187 18.2085C13.8079 18.1489 13.7764 18.0949 13.7299 18.0562C13.6834 18.0174 13.6247 17.9961 13.5642 17.9961C13.5036 17.9961 13.4449 18.0174 13.3984 18.0562L8.7232 23.0136Z" fill="#F53838"/>
</svg>
