<svg width="60" height="26" viewBox="0 0 60 26" fill="none" xmlns="http://www.w3.org/2000/svg">
  <path d="M6.416 18C6.30933 18 6.21867 17.968 6.144 17.904C6.08 17.8293 6.048 17.7387 6.048 17.632V15.328H0.864C0.757333 15.328 0.666667 15.296 0.592 15.232C0.528 15.1573 0.496 15.0667 0.496 14.96V14.32C0.496 14.16 0.554667 14 0.672 13.84L5.472 7.072C5.52533 6.98667 5.60533 6.92267 5.712 6.88C5.81867 6.82667 5.936 6.8 6.064 6.8H7.216C7.32267 6.8 7.408 6.83733 7.472 6.912C7.54667 6.976 7.584 7.06133 7.584 7.168V13.936H9.024C9.13067 13.936 9.22133 13.9733 9.296 14.048C9.37067 14.112 9.408 14.1973 9.408 14.304V14.96C9.408 15.0667 9.37067 15.1573 9.296 15.232C9.232 15.296 9.14667 15.328 9.04 15.328H7.584V17.632C7.584 17.7387 7.54667 17.8293 7.472 17.904C7.408 17.968 7.32267 18 7.216 18H6.416ZM6.064 13.968V8.48L2.208 13.968H6.064ZM11.1431 18C11.0365 18 10.9458 17.968 10.8711 17.904C10.8071 17.8293 10.7751 17.7387 10.7751 17.632V16.48C10.7751 16.3733 10.8071 16.288 10.8711 16.224C10.9458 16.1493 11.0365 16.112 11.1431 16.112H12.2951C12.4018 16.112 12.4925 16.1493 12.5671 16.224C12.6418 16.288 12.6791 16.3733 12.6791 16.48V17.632C12.6791 17.7387 12.6418 17.8293 12.5671 17.904C12.4925 17.968 12.4018 18 12.2951 18H11.1431ZM18.4064 18.16C17.5957 18.16 16.897 18.016 16.3104 17.728C15.7237 17.44 15.2704 17.0613 14.9504 16.592C14.641 16.1227 14.4757 15.6213 14.4544 15.088V15.056C14.4544 14.9707 14.4864 14.9013 14.5504 14.848C14.6144 14.7947 14.689 14.768 14.7744 14.768H15.6384C15.8624 14.768 16.0064 14.8853 16.0704 15.12C16.2197 15.6853 16.5077 16.1067 16.9344 16.384C17.361 16.6613 17.8517 16.8 18.4064 16.8C19.121 16.8 19.713 16.5867 20.1824 16.16C20.6624 15.7227 20.9024 15.12 20.9024 14.352C20.9024 13.6587 20.6624 13.0987 20.1824 12.672C19.713 12.2453 19.121 12.032 18.4064 12.032C18.0224 12.032 17.713 12.0853 17.4784 12.192C17.2437 12.288 17.009 12.4267 16.7744 12.608C16.6464 12.704 16.5344 12.7787 16.4384 12.832C16.353 12.8747 16.257 12.896 16.1504 12.896H15.3184C15.2224 12.896 15.137 12.864 15.0624 12.8C14.9877 12.7253 14.9557 12.64 14.9664 12.544L15.4784 7.2C15.489 7.072 15.5264 6.976 15.5904 6.912C15.665 6.83733 15.761 6.8 15.8784 6.8H21.4624C21.569 6.8 21.6544 6.83733 21.7184 6.912C21.793 6.976 21.8304 7.06133 21.8304 7.168V7.792C21.8304 7.89867 21.793 7.98933 21.7184 8.064C21.6544 8.128 21.569 8.16 21.4624 8.16H16.8544L16.5504 11.312C17.1264 10.9493 17.8197 10.768 18.6304 10.768C19.3344 10.768 19.9797 10.912 20.5664 11.2C21.1637 11.488 21.633 11.904 21.9744 12.448C22.3264 12.992 22.5024 13.632 22.5024 14.368C22.5024 15.1573 22.3264 15.84 21.9744 16.416C21.633 16.9813 21.153 17.4133 20.5344 17.712C19.9157 18.0107 19.2064 18.16 18.4064 18.16Z" fill="#0B132A"/>
  <path d="M56.9007 8.78733L50.7345 7.86902L47.978 2.14269C47.9027 1.98591 47.7788 1.85899 47.6258 1.78184C47.2421 1.58773 46.7758 1.74949 46.584 2.14269L43.8275 7.86902L37.6613 8.78733C37.4913 8.81221 37.3358 8.89434 37.2168 9.01877C37.073 9.17029 36.9937 9.37415 36.9964 9.58553C36.9991 9.79692 37.0837 9.99855 37.2314 10.1461L41.6927 14.6032L40.6387 20.897C40.614 21.0434 40.6298 21.194 40.6844 21.3316C40.7389 21.4693 40.83 21.5886 40.9473 21.6759C41.0646 21.7632 41.2035 21.8151 41.3481 21.8256C41.4928 21.8362 41.6374 21.805 41.7656 21.7357L47.281 18.7642L52.7963 21.7357C52.9469 21.8178 53.1218 21.8452 53.2893 21.8153C53.7119 21.7406 53.9961 21.33 53.9232 20.897L52.8692 14.6032L57.3306 10.1461C57.452 10.0242 57.5321 9.8649 57.5564 9.6907C57.622 9.25519 57.3257 8.85203 56.9007 8.78733Z" fill="#FEA250"/>
</svg>
